<?xml version="1.0" encoding="utf-8"?>
<!-- Generator: Adobe Illustrator 16.0.0, SVG Export Plug-In . SVG Version: 6.00 Build 0)  -->
<!DOCTYPE svg PUBLIC "-//W3C//DTD SVG 1.1//EN" "http://www.w3.org/Graphics/SVG/1.1/DTD/svg11.dtd">
<svg version="1.1" id="Layer_1" xmlns="http://www.w3.org/2000/svg" xmlns:xlink="http://www.w3.org/1999/xlink" x="0px" y="0px"
	 width="18px" height="13px" viewBox="0 0 18 13" enable-background="new 0 0 18 13" xml:space="preserve">
<path id="Vector" fill="none" stroke="#526AE9" stroke-width="1.5" stroke-linecap="round" stroke-linejoin="round" d="M8.987,1
	C6.204,1,3.349,2.611,1.101,5.833C1.037,5.926,1.002,6.036,1,6.149C0.999,6.262,1.03,6.373,1.091,6.468
	c1.727,2.703,4.544,4.817,7.896,4.817c3.315,0,6.19-2.121,7.921-4.83C16.969,6.362,17,6.254,17,6.143
	c0-0.11-0.031-0.219-0.092-0.312C15.174,3.153,12.278,1,8.987,1z"/>
<g>
	<path id="Vector_1_" fill="none" stroke="#526AE9" stroke-width="1.5" stroke-miterlimit="10" d="M9,9
		c1.579,0,2.858-1.279,2.858-2.857c0-1.578-1.279-2.857-2.858-2.857c-1.578,0-2.857,1.279-2.857,2.857C6.143,7.721,7.422,9,9,9z"/>
</g>
</svg>
