<?xml version="1.0" encoding="utf-8"?>
<!-- Generator: Adobe Illustrator 16.0.0, SVG Export Plug-In . SVG Version: 6.00 Build 0)  -->
<!DOCTYPE svg PUBLIC "-//W3C//DTD SVG 1.1//EN" "http://www.w3.org/Graphics/SVG/1.1/DTD/svg11.dtd">
<svg version="1.1" id="Layer_1" xmlns="http://www.w3.org/2000/svg" xmlns:xlink="http://www.w3.org/1999/xlink" x="0px" y="0px"
	 width="38.5px" height="38.625px" viewBox="0 0 38.5 38.625" enable-background="new 0 0 38.5 38.625" xml:space="preserve">
<path id="Vector" fill="none" stroke="#1F2B6C" stroke-width="2" stroke-linecap="round" stroke-linejoin="round" d="M23.146,33.127
	c0.581-0.336,1.004-0.893,1.175-1.546s0.075-1.352-0.264-1.94l-1.282-2.219c-0.339-0.588-0.896-1.02-1.547-1.198
	c-0.652-0.179-1.345-0.091-1.926,0.245c-4.387,2.531-6.949-1.906-8.23-4.125c-1.281-2.221-3.844-6.658,0.542-9.19
	c0.582-0.335,1.004-0.891,1.175-1.545s0.076-1.352-0.264-1.94l-1.281-2.219c-0.34-0.588-0.897-1.02-1.548-1.199
	C9.045,6.072,8.353,6.16,7.771,6.496c-5.482,3.165-7.49,7.283-1.083,18.379C13.094,35.971,17.664,36.291,23.146,33.127z"/>
<path id="Vector_1_" fill="none" stroke="#159EEC" stroke-width="2" stroke-linecap="round" stroke-linejoin="round" d="
	M34.299,24.031c1.165-4.464,0.517-9.229-1.804-13.247s-6.122-6.962-10.57-8.186 M27.585,22.188c0.348-1.325,0.432-2.71,0.246-4.073
	s-0.636-2.68-1.325-3.873c-0.688-1.193-1.604-2.242-2.692-3.084c-1.088-0.842-2.328-1.463-3.649-1.824 M20.908,20.333
	c0.233-0.894,0.103-1.847-0.361-2.65s-1.225-1.394-2.114-1.638"/>
</svg>
