<svg width="112" height="24" viewBox="0 0 112 24" fill="none" xmlns="http://www.w3.org/2000/svg">
<path d="M12 0C5.3725 0 0 5.3725 0 12C0 18.6275 5.3725 24 12 24C18.6275 24 24 18.6275 24 12C24 5.3725 18.6275 0 12 0ZM9.0625 16.9738H6.6325V9.15375H9.0625V16.9738ZM7.8325 8.19375C7.065 8.19375 6.56875 7.65 6.56875 6.9775C6.56875 6.29125 7.08 5.76375 7.86375 5.76375C8.6475 5.76375 9.1275 6.29125 9.1425 6.9775C9.1425 7.65 8.6475 8.19375 7.8325 8.19375ZM17.9375 16.9738H15.5075V12.64C15.5075 11.6313 15.155 10.9462 14.2763 10.9462C13.605 10.9462 13.2063 11.41 13.03 11.8563C12.965 12.015 12.9488 12.24 12.9488 12.4638V16.9725H10.5175V11.6475C10.5175 10.6713 10.4862 9.855 10.4537 9.1525H12.565L12.6763 10.2388H12.725C13.045 9.72875 13.8288 8.97625 15.14 8.97625C16.7388 8.97625 17.9375 10.0475 17.9375 12.35V16.9738Z" fill="#1F2B6C"/>
<path d="M56 0C49.3725 0 44 5.3725 44 12C44 18.6275 49.3725 24 56 24C62.6275 24 68 18.6275 68 12C68 5.3725 62.6275 0 56 0ZM58.8425 8.2925H57.0388C56.825 8.2925 56.5875 8.57375 56.5875 8.9475V10.25H58.8438L58.5025 12.1075H56.5875V17.6838H54.4588V12.1075H52.5275V10.25H54.4588V9.1575C54.4588 7.59 55.5463 6.31625 57.0388 6.31625H58.8425V8.2925Z" fill="#1F2B6C"/>
<path d="M104.873 8.31375C104.768 8.04406 104.609 7.79917 104.404 7.59486C104.2 7.39055 103.955 7.23134 103.685 7.1275C103.314 6.98991 102.921 6.91718 102.525 6.9125C101.866 6.8825 101.669 6.875 100 6.875C98.3313 6.875 98.1338 6.8825 97.475 6.9125C97.0785 6.91704 96.6856 6.98976 96.3138 7.1275C96.0441 7.23163 95.7992 7.39109 95.5949 7.59562C95.3906 7.80015 95.2313 8.0452 95.1275 8.315C94.9899 8.68649 94.9172 9.07887 94.9125 9.475C94.8825 10.1337 94.875 10.3312 94.875 12C94.875 13.6687 94.8825 13.8662 94.9125 14.525C94.917 14.9215 94.9898 15.3144 95.1275 15.6862C95.2316 15.9559 95.3911 16.2008 95.5956 16.4051C95.8002 16.6094 96.0452 16.7687 96.315 16.8725C96.6865 17.0101 97.0789 17.0828 97.475 17.0875C98.1338 17.1175 98.3313 17.1237 100 17.1237C101.669 17.1237 101.866 17.1175 102.525 17.0862C102.921 17.0821 103.314 17.0098 103.686 16.8725C103.956 16.7684 104.201 16.6089 104.405 16.4044C104.609 16.1999 104.769 15.9548 104.873 15.685C105.01 15.3135 105.083 14.9211 105.088 14.525C105.118 13.8662 105.124 13.6687 105.124 12C105.124 10.3312 105.118 10.1337 105.086 9.475C105.082 9.07852 105.01 8.68571 104.873 8.31375ZM100 15.21C99.3651 15.21 98.7445 15.0217 98.2166 14.669C97.6887 14.3163 97.2773 13.815 97.0344 13.2284C96.7914 12.6419 96.7278 11.9964 96.8517 11.3738C96.9755 10.7511 97.2813 10.1791 97.7302 9.73019C98.1791 9.28126 98.7511 8.97554 99.3738 8.85168C99.9964 8.72782 100.642 8.79139 101.228 9.03435C101.815 9.2773 102.316 9.68874 102.669 10.2166C103.022 10.7445 103.21 11.3651 103.21 12C103.21 12.8513 102.872 13.6678 102.27 14.2698C101.668 14.8718 100.851 15.21 100 15.21ZM103.336 9.41375C103.188 9.41375 103.043 9.36976 102.92 9.28735C102.796 9.20494 102.7 9.08781 102.643 8.95076C102.587 8.81372 102.572 8.66292 102.601 8.51743C102.63 8.37194 102.701 8.23831 102.806 8.13342C102.911 8.02853 103.044 7.9571 103.19 7.92816C103.335 7.89922 103.486 7.91407 103.623 7.97084C103.76 8.0276 103.877 8.12373 103.96 8.24707C104.042 8.37041 104.086 8.51541 104.086 8.66375C104.086 8.86266 104.007 9.05343 103.867 9.19408C103.726 9.33473 103.535 9.41375 103.336 9.41375ZM102.084 12C102.084 12.4121 101.962 12.815 101.733 13.1577C101.504 13.5003 101.178 13.7674 100.797 13.9251C100.417 14.0828 99.9977 14.1241 99.5935 14.0437C99.1893 13.9633 98.818 13.7648 98.5266 13.4734C98.2352 13.182 98.0367 12.8107 97.9563 12.4065C97.8759 12.0023 97.9172 11.5833 98.0749 11.2026C98.2326 10.8218 98.4997 10.4964 98.8423 10.2674C99.185 10.0385 99.5879 9.91625 100 9.91625C100.553 9.91625 101.083 10.1358 101.473 10.5266C101.864 10.9173 102.084 11.4474 102.084 12ZM100 0C97.6266 0 95.3066 0.703788 93.3332 2.02236C91.3598 3.34094 89.8217 5.21508 88.9135 7.4078C88.0052 9.60051 87.7676 12.0133 88.2306 14.3411C88.6936 16.6689 89.8365 18.807 91.5147 20.4853C93.193 22.1635 95.3311 23.3064 97.6589 23.7694C99.9867 24.2324 102.399 23.9948 104.592 23.0865C106.785 22.1783 108.659 20.6402 109.978 18.6668C111.296 16.6935 112 14.3734 112 12C112 8.8174 110.736 5.76515 108.485 3.51472C106.235 1.26428 103.183 0 100 0V0ZM106.213 14.5762C106.202 15.0949 106.103 15.608 105.921 16.0937C105.761 16.5088 105.515 16.8858 105.201 17.2005C104.886 17.5152 104.509 17.7607 104.094 17.9212C103.608 18.1033 103.096 18.2018 102.578 18.2125C101.91 18.2425 101.698 18.25 100 18.25C98.3025 18.25 98.09 18.2425 97.4225 18.2125C96.9043 18.2018 96.3916 18.1033 95.9063 17.9212C95.4912 17.7607 95.1142 17.5152 94.7995 17.2005C94.4848 16.8858 94.2393 16.5088 94.0788 16.0937C93.8967 15.6084 93.7982 15.0957 93.7875 14.5775C93.7575 13.91 93.75 13.6975 93.75 12C93.75 10.3025 93.7575 10.09 93.7875 9.4225C93.7978 8.90433 93.8959 8.39165 94.0775 7.90625C94.238 7.4908 94.4836 7.1135 94.7986 6.79856C95.1135 6.48363 95.4908 6.23802 95.9063 6.0775C96.3917 5.89588 96.9043 5.79782 97.4225 5.7875C98.09 5.7575 98.3025 5.75 100 5.75C101.698 5.75 101.91 5.7575 102.578 5.7875C103.096 5.79782 103.608 5.89588 104.094 6.0775C104.509 6.23817 104.886 6.48384 105.201 6.79877C105.515 7.1137 105.761 7.49092 105.921 7.90625C106.103 8.39158 106.202 8.90426 106.213 9.4225C106.243 10.09 106.25 10.3025 106.25 12C106.25 13.6975 106.243 13.91 106.213 14.5775V14.5762Z" fill="#1F2B6C"/>
</svg>
