<?xml version="1.0" encoding="utf-8"?>
<!-- Generator: Adobe Illustrator 16.0.0, SVG Export Plug-In . SVG Version: 6.00 Build 0)  -->
<!DOCTYPE svg PUBLIC "-//W3C//DTD SVG 1.1//EN" "http://www.w3.org/Graphics/SVG/1.1/DTD/svg11.dtd">
<svg version="1.1" id="Layer_1" xmlns="http://www.w3.org/2000/svg" xmlns:xlink="http://www.w3.org/1999/xlink" x="0px" y="0px"
	 width="23px" height="23px" viewBox="0 0 23 23" enable-background="new 0 0 23 23" xml:space="preserve">
<path id="Vector" fill="#1F2B6C" d="M20.746,0.435l-0.008,0.003L1.141,8.544C0.976,8.612,0.83,8.72,0.716,8.858
	C0.603,8.996,0.525,9.16,0.491,9.335C0.452,9.519,0.46,9.708,0.514,9.888c0.054,0.18,0.151,0.343,0.283,0.476l3.674,3.674
	c0.181,0.181,0.42,0.294,0.675,0.317c0.255,0.023,0.511-0.041,0.722-0.186l8.952-6.159c0.035-0.024,0.078-0.035,0.121-0.031
	c0.042,0.004,0.082,0.023,0.112,0.053c0.03,0.03,0.049,0.07,0.053,0.113s-0.007,0.085-0.03,0.121l-6.158,8.951
	c-0.145,0.212-0.21,0.468-0.187,0.722c0.024,0.256,0.136,0.494,0.317,0.676l3.674,3.675c0.127,0.126,0.283,0.22,0.454,0.271
	c0.171,0.053,0.353,0.061,0.528,0.024c0.211-0.042,0.406-0.146,0.559-0.299c0.105-0.106,0.189-0.232,0.246-0.372l8.14-19.563
	l0.003-0.009c0.106-0.267,0.133-0.559,0.074-0.84c-0.058-0.281-0.197-0.539-0.399-0.742c-0.203-0.203-0.461-0.342-0.742-0.4
	C21.304,0.302,21.012,0.328,20.746,0.435z"/>
</svg>
