<svg width="28" height="28" viewBox="0 0 28 28" fill="none" xmlns="http://www.w3.org/2000/svg">
<path d="M9.76014 13.0533C9.63517 13.1772 9.53598 13.3247 9.46829 13.4872C9.40059 13.6497 9.36574 13.8239 9.36574 13.9999C9.36574 14.176 9.40059 14.3502 9.46829 14.5127C9.53598 14.6752 9.63517 14.8227 9.76014 14.9466C10.01 15.1949 10.3479 15.3343 10.7001 15.3343C11.0524 15.3343 11.3903 15.1949 11.6401 14.9466C11.7651 14.8227 11.8643 14.6752 11.932 14.5127C11.9997 14.3502 12.0345 14.176 12.0345 13.9999C12.0345 13.8239 11.9997 13.6497 11.932 13.4872C11.8643 13.3247 11.7651 13.1772 11.6401 13.0533C11.3903 12.8049 11.0524 12.6656 10.7001 12.6656C10.3479 12.6656 10.01 12.8049 9.76014 13.0533ZM13.0535 16.3599C12.8051 16.6098 12.6658 16.9477 12.6658 17.2999C12.6658 17.6522 12.8051 17.9901 13.0535 18.2399C13.1774 18.3649 13.3249 18.4641 13.4874 18.5318C13.6499 18.5995 13.8241 18.6343 14.0001 18.6343C14.1762 18.6343 14.3504 18.5995 14.5129 18.5318C14.6754 18.4641 14.8229 18.3649 14.9468 18.2399C15.1951 17.9901 15.3345 17.6522 15.3345 17.2999C15.3345 16.9477 15.1951 16.6098 14.9468 16.3599C14.8229 16.235 14.6754 16.1358 14.5129 16.0681C14.3504 16.0004 14.1762 15.9655 14.0001 15.9655C13.8241 15.9655 13.6499 16.0004 13.4874 16.0681C13.3249 16.1358 13.1774 16.235 13.0535 16.3599ZM25.0535 3.02661C23.6031 1.56424 21.6446 0.717614 19.5856 0.662975C17.5267 0.608335 15.5261 1.3499 14.0001 2.73328C12.4813 1.36605 10.4968 0.631915 8.45377 0.681503C6.41078 0.73109 4.46422 1.56064 3.01347 2.99994C1.57216 4.45306 0.742606 6.40333 0.695482 8.44947C0.648359 10.4956 1.38725 12.482 2.76014 13.9999C1.7337 15.1475 1.06019 16.5668 0.820422 18.0876C0.580653 19.6084 0.784814 21.1661 1.40841 22.5738C2.032 23.9814 3.04853 25.1792 4.33601 26.0235C5.6235 26.8677 7.12725 27.3225 8.66681 27.3333C10.6404 27.3354 12.5433 26.598 14.0001 25.2666C15.5198 26.6377 17.5071 27.3743 19.5533 27.3247C21.5994 27.2751 23.5488 26.4431 25.0001 24.9999C26.4396 23.5451 27.2667 21.5939 27.3114 19.5478C27.356 17.5016 26.6148 15.5162 25.2401 13.9999C26.6148 12.4837 27.356 10.4983 27.3114 8.45213C27.2667 6.406 26.4396 4.45479 25.0001 2.99994L25.0535 3.02661ZM23.1068 4.89328C24.034 5.84713 24.5714 7.11306 24.6133 8.44267C24.6552 9.77227 24.1988 11.0696 23.3335 12.0799L15.9201 4.66661C16.9394 3.82092 18.2327 3.37715 19.5564 3.4189C20.8801 3.46065 22.1429 3.98504 23.1068 4.89328ZM4.89347 23.1066C3.96623 22.1528 3.42892 20.8868 3.38699 19.5572C3.34505 18.2276 3.80152 16.9303 4.66681 15.9199L12.1335 23.3866C11.103 24.2373 9.79537 24.6789 8.46008 24.6273C7.12479 24.5757 5.85522 24.0344 4.89347 23.1066ZM23.1068 23.1066C22.0945 24.0748 20.7476 24.6152 19.3468 24.6152C17.946 24.6152 16.5992 24.0748 15.5868 23.1066L4.92014 12.4399C3.9268 11.4407 3.36925 10.0889 3.36925 8.67994C3.36925 7.27095 3.9268 5.91921 4.92014 4.91994C5.91941 3.9266 7.27115 3.36905 8.68014 3.36905C10.0891 3.36905 11.4409 3.9266 12.4401 4.91994L23.1068 15.5866C24.1001 16.5859 24.6577 17.9376 24.6577 19.3466C24.6577 20.7556 24.1001 22.1073 23.1068 23.1066ZM16.3601 13.0533C16.2352 13.1772 16.136 13.3247 16.0683 13.4872C16.0006 13.6497 15.9657 13.8239 15.9657 13.9999C15.9657 14.176 16.0006 14.3502 16.0683 14.5127C16.136 14.6752 16.2352 14.8227 16.3601 14.9466C16.61 15.1949 16.9479 15.3343 17.3001 15.3343C17.6524 15.3343 17.9903 15.1949 18.2401 14.9466C18.3651 14.8227 18.4643 14.6752 18.532 14.5127C18.5997 14.3502 18.6345 14.176 18.6345 13.9999C18.6345 13.8239 18.5997 13.6497 18.532 13.4872C18.4643 13.3247 18.3651 13.1772 18.2401 13.0533C17.9903 12.8049 17.6524 12.6656 17.3001 12.6656C16.9479 12.6656 16.61 12.8049 16.3601 13.0533ZM13.0535 9.75994C12.8051 10.0098 12.6658 10.3477 12.6658 10.6999C12.6658 11.0522 12.8051 11.3901 13.0535 11.6399C13.1774 11.7649 13.3249 11.8641 13.4874 11.9318C13.6499 11.9995 13.8241 12.0343 14.0001 12.0343C14.1762 12.0343 14.3504 11.9995 14.5129 11.9318C14.6754 11.8641 14.8229 11.7649 14.9468 11.6399C15.1951 11.3901 15.3345 11.0522 15.3345 10.6999C15.3345 10.3477 15.1951 10.0098 14.9468 9.75994C14.8229 9.63497 14.6754 9.53578 14.5129 9.46809C14.3504 9.4004 14.1762 9.36554 14.0001 9.36554C13.8241 9.36554 13.6499 9.4004 13.4874 9.46809C13.3249 9.53578 13.1774 9.63497 13.0535 9.75994Z" fill="#159EEC"/>
</svg>
